<mxfile host="app.diagrams.net" agent="Mozilla/5.0 (Windows NT 10.0; Win64; x64) AppleWebKit/537.36 (KHTML, like Gecko) Chrome/128.0.0.0 Safari/537.36" version="24.7.7">
  <diagram name="Page-1" id="i7RVYJHn8dIjBBScOvBf">
    <mxGraphModel>
      <root>
        <mxCell id="0" />
        <mxCell id="1" parent="0" />
        <mxCell id="2" value="Orchestration" style="whiteSpace=wrap;strokeWidth=2;verticalAlign=top;" vertex="1" parent="1">
          <mxGeometry x="468" y="128" width="118" height="104" as="geometry" />
        </mxCell>
        <mxCell id="3" value="Prefect" style="whiteSpace=wrap;strokeWidth=2;" vertex="1" parent="1">
          <mxGeometry x="493" y="163" width="68" height="34" as="geometry" />
        </mxCell>
        <mxCell id="4" value="Data Pipeline" style="whiteSpace=wrap;strokeWidth=2;verticalAlign=top;" vertex="1" parent="1">
          <mxGeometry width="586" height="108" as="geometry" />
        </mxCell>
        <mxCell id="5" value="Ticket Master" style="whiteSpace=wrap;strokeWidth=2;" vertex="1" parent="1">
          <mxGeometry x="25" y="35" width="113" height="34" as="geometry" />
        </mxCell>
        <mxCell id="6" value="S3 Buckets" style="whiteSpace=wrap;strokeWidth=2;" vertex="1" parent="1">
          <mxGeometry x="188" y="35" width="92" height="34" as="geometry" />
        </mxCell>
        <mxCell id="7" value="Snowflake" style="whiteSpace=wrap;strokeWidth=2;" vertex="1" parent="1">
          <mxGeometry x="330" y="35" width="88" height="34" as="geometry" />
        </mxCell>
        <mxCell id="8" value="DBT" style="whiteSpace=wrap;strokeWidth=2;" vertex="1" parent="1">
          <mxGeometry x="505" y="35" width="44" height="34" as="geometry" />
        </mxCell>
        <mxCell id="9" value="" style="curved=1;startArrow=none;endArrow=block;exitX=1;exitY=0.5;entryX=0;entryY=0.5;" edge="1" parent="1" source="5" target="6">
          <mxGeometry relative="1" as="geometry">
            <Array as="points" />
          </mxGeometry>
        </mxCell>
        <mxCell id="10" value="" style="curved=1;startArrow=none;endArrow=block;exitX=1;exitY=0.5;entryX=0;entryY=0.5;" edge="1" parent="1" source="6" target="7">
          <mxGeometry relative="1" as="geometry">
            <Array as="points" />
          </mxGeometry>
        </mxCell>
        <mxCell id="11" value="" style="curved=1;startArrow=none;endArrow=block;exitX=1;exitY=0.2;entryX=0;entryY=0.32;" edge="1" parent="1" source="7" target="8">
          <mxGeometry relative="1" as="geometry">
            <Array as="points">
              <mxPoint x="443" y="36" />
              <mxPoint x="468" y="36" />
            </Array>
          </mxGeometry>
        </mxCell>
        <mxCell id="12" value="" style="curved=1;startArrow=none;endArrow=block;exitX=0;exitY=0.61;entryX=1;entryY=0.69;" edge="1" parent="1" source="8" target="7">
          <mxGeometry relative="1" as="geometry">
            <Array as="points">
              <mxPoint x="468" y="62" />
              <mxPoint x="443" y="62" />
            </Array>
          </mxGeometry>
        </mxCell>
        <mxCell id="13" value="" style="curved=1;startArrow=none;endArrow=block;exitX=0.95;exitY=1;entryX=0.35;entryY=0;" edge="1" parent="1" source="7" target="3">
          <mxGeometry relative="1" as="geometry">
            <Array as="points">
              <mxPoint x="443" y="82" />
              <mxPoint x="468" y="82" />
            </Array>
          </mxGeometry>
        </mxCell>
      </root>
    </mxGraphModel>
  </diagram>
</mxfile>
